<svg xmlns="http://www.w3.org/2000/svg" width="87" height="96" fill="none" xmlns:v="https://vecta.io/nano">
    <g fill="#333b41">
        <path d="M39.974 5.264c-.349-.328-.699-.568-1.027-.743-.328-.153-.699-.24-1.114-.24-.48 0-.83.109-1.07.306s-.371.524-.371.961a.96.96 0 0 0 .393.786 4.87 4.87 0 0 0 .961.612l1.245.612c.437.218.852.459 1.245.764s.699.655.961 1.092.393.961.393 1.573c0 .939-.262 1.747-.765 2.425s-1.289 1.114-2.293 1.354v2.053h-1.9v-1.966c-.568-.066-1.179-.218-1.813-.481s-1.179-.59-1.638-1.005l1.267-1.944c.502.371.983.655 1.42.852.459.197.917.284 1.376.284.546 0 .961-.109 1.201-.328.262-.218.393-.568.393-1.027a1.13 1.13 0 0 0-.393-.874c-.262-.24-.568-.459-.961-.677l-1.245-.655c-.437-.218-.852-.481-1.245-.786s-.699-.655-.961-1.07-.393-.896-.393-1.485c0-.961.262-1.769.786-2.403s1.267-1.048 2.184-1.223V0h1.9v1.988c.633.087 1.18.284 1.66.568s.895.633 1.289 1.048l-1.485 1.66z"/>
        <path fill-rule="evenodd" d="M87 76.001l-3.594-2.212-8.017 14.375 3.87 1.935L87 76.001z"/>
    </g>
    <path d="M81.471 73.236c-9.399-10.781-17.692-8.017-28.75-.829-9.675 6.358-16.863 1.935-24.05 4.976-1.659.829-4.147 2.764-1.935 4.7 1.106.829 5.529 1.659 6.911 1.382 7.464-1.659 9.676 1.659 21.01-.553-3.317 2.488-14.098.829-20.733 1.659-5.252 1.106-13.822-3.041-6.911-7.74-3.041-1.382-5.805-2.212-9.123-2.488-3.317-2.488-8.57-5.529-11.334-6.635-2.212-1.382-7.74-.829-4.147 2.764 3.594 3.317 13.269 10.781 15.204 11.887 7.74 4.7 14.928 8.017 22.392 12.163 0 0 2.488 1.382 7.464-.553 3.594-1.659 19.627-10.505 23.497-9.123 2.212.829 3.317 1.382 3.317 1.382l7.188-12.993z"
          stroke="#333b41" stroke-width="1.5"/>
    <path fill-rule="evenodd"
          d="M34.753 72.406c.553-1.106 1.106-1.935 1.935-2.212s1.106.276 1.659.829a4.76 4.76 0 0 0 1.659 1.659c.276.276.829.276 1.106.276l-.553-.276c-.829-.553-1.382-1.106-1.106-2.212 0-.276-.276-.829.276-.829.553.276 1.382.829 2.212.829 0 0 .829.276.553 0 0-.276-.553-.553-.829-.829-1.659-1.382-1.659-1.659-1.659-3.594.276-2.764-.829-4.976-2.764-6.911-4.423-4.423-2.488-10.505.829-16.31 3.041-5.252 5.805-6.082 2.764-12.44-1.106-2.764-3.041-5.529-3.317-7.187 0-.553 0-.276 0 0-.276 1.659.829 4.147 1.935 6.635 2.488 5.529 1.935 6.082-1.659 11.058-3.87 4.976-6.635 10.228-4.976 15.757 1.106 3.87 6.635 7.74 3.87 10.228-1.382 1.106-3.317 3.87-3.594 5.529-.276.829-.276.829-.553 1.382-.276.276 0 .276.276.276 1.382-.276 1.382-.829 1.935-1.659z"
          fill="#333b41"/>
    <path d="M53.068 46.529l.912-.261.043.948c.148 3.252-1.245 7.15-3.534 10.226-1.187 1.595-2.649 3.012-4.309 4.006 1.093-.375 2.296-1.065 3.513-2.279 3.235-3.49 4.127-7.928 5.163-13.616-.965.087-1.917.303-2.894.586a53.99 53.99 0 0 0-1.951.618l-.121.04-1.907.612c-5.129 1.893-7.904 4.251-8.912 6.956-.25 1.29-.215 2.455.223 3.331l.037.074.02.08c.173.693.875 1.335 1.816 1.852 1.051-.989 1.784-1.872 2.505-2.79l-.855.894c-.196.203-.386.393-.561.544-.157.136-.377.309-.63.393l-.189.063-.195-.039c-.895-.179-1.567-.673-1.843-1.5-.247-.741-.124-1.612.164-2.486.494-1.933 2.01-3.444 4.253-4.726 2.258-1.29 5.37-2.416 9.254-3.525zM26.36 28.364c-1.476-.515-2.762-.964-4.201-1.227l.146.716.386 1.871a9.92 9.92 0 0 1-.021-1.312l.05-.946.909.265c3.332.972 6.025 1.959 8.002 3.073 1.764.994 3.052 2.143 3.657 3.562-.84-2.261-3.051-4.198-7.382-5.472l-.026-.008-1.521-.523zm-.675 8.966c-.585-.787-1.1-1.639-1.532-2.522.606 1.444 1.405 2.738 2.56 3.894l.01.01.009.01c.636.685 1.275 1.177 1.892 1.524-1.12-.789-2.111-1.801-2.94-2.916zm9.779.185c.434-.869.447-1.703.037-2.569.283.786.295 1.567.01 2.233-.306.714-.919 1.209-1.682 1.4l-.212.053-.207-.069a1.41 1.41 0 0 1-.241-.107l.553.608.02-.005c.959-.24 1.482-.655 1.666-1.389l.02-.08.037-.074zm15.318-8.842a12.6 12.6 0 0 1-1.041 1.104l.502-.46.539-.644zm3.209-9.21l.008-.044c-1.532.298-3.109.777-4.885 1.443h0l-.011.004c-3.477 1.242-5.388 2.642-6.239 4.516.579-1.19 1.622-2.161 3.09-3.005 1.708-.981 4.063-1.831 7.122-2.665l.914-.249zm-10.077 9.701a2.1 2.1 0 0 1-.774-.452c.188.345.448.629.81.809l.305-.323-.104.005h-.122l-.115-.038z"
          stroke="#333b41" stroke-width="1.5"/>
    <defs/>
</svg>