<svg xmlns="http://www.w3.org/2000/svg" viewBox="0 0 16 16" width="16" height="16" fill="none" xmlns:v="https://vecta.io/nano">
    <path fill-rule="evenodd"
          d="M4.702.048C3.85.087 3.269.222 2.76.42c-.526.204-.972.478-1.417.923S.624 2.234.42 2.76C.222 3.269.087 3.85.048 4.702L0 8l.048 3.298c.039.851.174 1.433.372 1.942.204.526.478.973.923 1.417a3.92 3.92 0 0 0 1.417.923c.509.198 1.09.333 1.942.372L8 16l3.299-.048c.851-.039 1.433-.174 1.942-.372.526-.205.972-.478 1.417-.923a3.92 3.92 0 0 0 .923-1.417c.198-.509.333-1.09.372-1.942L16 8l-.048-3.298c-.039-.851-.174-1.433-.372-1.942a3.92 3.92 0 0 0-.923-1.417A3.92 3.92 0 0 0 13.241.42C12.732.222 12.15.087 11.299.048L8 0 4.702.048zm.066 14.463c-.78-.035-1.204-.165-1.485-.275a2.48 2.48 0 0 1-.92-.599 2.48 2.48 0 0 1-.599-.92c-.11-.282-.24-.705-.275-1.485L1.441 8l.047-3.233c.036-.78.166-1.203.275-1.485a2.48 2.48 0 0 1 .599-.92c.28-.28.546-.453.92-.598.282-.11.705-.24 1.485-.276L8 1.441l3.233.047c.78.036 1.203.166 1.485.276.373.145.64.318.92.598a2.48 2.48 0 0 1 .598.92c.11.282.24.705.276 1.485L14.559 8l-.046 3.233c-.036.78-.166 1.204-.276 1.486-.145.373-.318.64-.598.92a2.48 2.48 0 0 1-.92.599c-.282.11-.706.24-1.485.275L8 14.558c-2.136 0-2.389-.008-3.233-.047zm6.543-10.782a.96.96 0 1 0 1.92 0 .96.96 0 1 0-1.92 0zM3.892 8A4.11 4.11 0 0 0 8 12.108 4.11 4.11 0 0 0 12.108 8 4.11 4.11 0 0 0 8 3.892 4.11 4.11 0 0 0 3.892 8zm1.442 0c0-1.473 1.194-2.667 2.667-2.667S10.667 6.527 10.667 8s-1.194 2.667-2.667 2.667S5.334 9.473 5.334 8z"
          fill="#fff"/>
</svg>