<svg xmlns="http://www.w3.org/2000/svg" width="127" height="73" fill="none" xmlns:v="https://vecta.io/nano">
    <path d="M45.398 50.055c-.18-.341-.36-.625-.48-.966-.841-1.931-.841-3.409-.541-5.283.24-1.363.18-2.045-.24-2.556-.48-.568-1.201-.625-2.222-.739h-.18c-.3-.057-.601-.057-.841-.057-2.343-.114-3.664-.057-4.265.795-.601.795-.18 1.988.661 3.693.42.852.601 1.704.721 2.329-1.021.057-2.222.511-3.664 1.079-2.943 1.136-6.968 2.727-11.893 1.307-5.826-1.647-10.692-6.022-13.335-8.408-1.261-1.136-1.802-1.647-2.222-1.761-.601-.171-1.382.227-1.802.454l-.24.114c-.3.227-.721.568-.901.966-.42 1.307-.481 3.749.541 6.476-.36-.17-.601-.227-.841-.284-.601-.057-1.261.398-1.802.909l-.18.17c-.3.284-.661.739-.661 1.193-.12 2.102.961 5.397 3.544 8.464h-.06c-.601.114-1.141.795-1.502 1.42v.227c-.18.398-.36.909-.3 1.363.601 2.329 3.063 5.681 7.208 8.01 2.523 1.42 6.367 2.784 11.653 2.784 2.343 0 4.985-.284 7.869-.966 6.848-1.591 13.215-6.192 15.798-11.589 1.622-3.181 1.682-6.363.18-9.146zM5.033 41.306s.06-.057.06-.114c.12.227.3.511.481.795 1.562 2.67 4.986 8.692 13.034 11.703-4.985-1.193-9.43-3.636-12.073-5.113-.18-.114-.36-.227-.541-.284-1.261-2.784-1.442-5.51-.961-6.987zM2.15 49.6s0-.114.12-.227c.18.17.481.511.781.795 2.523 2.67 8.469 8.976 19.341 9.601h1.021a15.31 15.31 0 0 0 3.244-.341c-.12.057-.3.057-.42.114-6.788 1.534-14.296-.17-18.32-1.079-.661-.171-1.201-.284-1.622-.341C3.231 55.11 2.03 51.588 2.15 49.6zm42.107 9.26c-2.463 5.056-8.469 9.487-15.017 10.964-16.699 3.806-24.507-5.34-25.468-9.089 0-.057 0-.114.06-.284.3.114.661.341 1.021.568 3.424 1.988 11.413 6.59 22.525 4.034 7.328-1.648 11.052-6.988 13.215-10.907.12-.227.06-.568-.24-.682-.24-.114-.601-.057-.721.227-2.042 3.693-5.646 8.805-12.554 10.396-10.692 2.443-18.38-2.045-21.684-3.92-.481-.284-.841-.511-1.141-.625.24-.341.481-.568.601-.568.3-.057 1.562.227 2.763.511 2.883.682 7.568 1.704 12.554 1.704 2.042 0 4.205-.17 6.247-.682 5.286-1.193 8.409-4.204 10.932-7.272a.52.52 0 0 0-.12-.739c-.24-.17-.601-.114-.781.114l-.781.909c-4.265 3.749-8.65 5.454-13.335 5.17-10.391-.568-16.158-6.647-18.621-9.26a13.72 13.72 0 0 0-.841-.852c.3-.227.541-.341.661-.341.3.057 1.321.625 2.343 1.193 3.484 1.931 9.971 5.51 16.819 5.908h1.021c2.403 0 4.445-.454 6.247-1.193h.06c.06 0 .06-.057.12-.057 2.282-.909 4.084-2.159 5.646-3.181.541-.341 1.021-.682 1.442-.966.24-.17.3-.454.18-.682-.18-.227-.481-.284-.721-.17-.481.284-.961.625-1.502.966-1.562 1.023-3.364 2.272-5.646 3.125-2.943.852-5.826.909-8.59.114-9.13-2.556-12.854-9.089-14.476-11.873-.24-.398-.36-.682-.541-.909.3-.114.481-.17.601-.17.24.114 1.021.795 1.802 1.534 2.643 2.386 7.629 6.874 13.695 8.578a16.7 16.7 0 0 0 4.265.568c3.364 0 6.127-1.079 8.349-1.931 1.562-.625 2.883-1.136 3.784-.966h.18c.06 0 .06 0 .12-.057 0 0 .06 0 .06-.057.06 0 .06-.057.12-.057l.06-.057s.06-.057.06-.114 0-.057.06-.114v-.17c-.06-.682-.24-2.045-.841-3.295-.3-.625-1.081-2.216-.721-2.67.3-.455 1.922-.398 3.364-.341.24 0 .481 0 .721.057h.18c.781.057 1.322.171 1.502.341.18.227.18.795.06 1.761-.36 1.988-.36 3.692.601 5.851.12.341.3.682.481 1.023 1.321 2.784 1.261 5.624-.18 8.635zm-1.561-.966c-.24-.114-.601 0-.721.227-2.282 4.658-7.869 8.749-13.936 10.112-.3.057-.48.341-.42.625.06.227.3.398.541.398h.12c6.427-1.42 12.314-5.738 14.716-10.68.12-.227 0-.511-.3-.682zm25.93-56.886a15.02 15.02 0 0 0-8.984 2.633c-2.64 1.813-4.636 4.423-5.7 7.452a.84.84 0 0 1-.654.551c-1.621.275-3.091 1.123-4.145 2.389s-1.623 2.869-1.605 4.52a6.94 6.94 0 0 0 1.705 4.482c1.082 1.242 2.57 2.057 4.197 2.296a.84.84 0 0 1 .689.615 14.58 14.58 0 0 0 4.899 7.559c2.388 1.936 5.326 3.063 8.391 3.218a35.77 35.77 0 0 0-1.21 7.512l-5.06-.803a4.06 4.06 0 0 0-3.031.731 4.09 4.09 0 0 0-1.628 2.668 4.1 4.1 0 0 0 .728 3.043 4.07 4.07 0 0 0 2.658 1.635l6.874 1.09.73 3.175c-1.564 1.708-2.432 3.943-2.432 6.263v1.447c0 .223-.089.437-.246.595a.84.84 0 0 1-.592.247h-.502a4.52 4.52 0 0 0-1.733.345 4.53 4.53 0 0 0-1.47.985 4.55 4.55 0 0 0-.982 1.475 4.56 4.56 0 0 0-.345 1.74v1.186a2.56 2.56 0 0 0 .194.976 2.55 2.55 0 0 0 .551.827 2.54 2.54 0 0 0 .825.553 2.53 2.53 0 0 0 .973.193h32.203a30.62 30.62 0 0 0 12.56-2.694 30.72 30.72 0 0 0 10.365-7.614 31.72 31.72 0 0 0 8.734-16.864 21.45 21.45 0 0 0-4.178-15.595c-2.63-3.389-6.204-5.917-10.267-7.264a13.73 13.73 0 0 0-8.573.206 13.78 13.78 0 0 0-6.79 5.257c-.313.461-.533.98-.647 1.526a4.26 4.26 0 0 0-.015 1.658c.103.548.314 1.071.618 1.538a4.24 4.24 0 0 0 1.158 1.183 4.22 4.22 0 0 0 1.521.647c.544.113 1.106.118 1.652.013s1.066-.316 1.531-.623a4.24 4.24 0 0 0 1.176-1.164 5.32 5.32 0 0 1 2.575-2.012c1.047-.383 2.187-.426 3.26-.123a13.14 13.14 0 0 1 6.096 4.338 12.94 12.94 0 0 1 2.515 9.16 23.23 23.23 0 0 1-6.525 12.287 22.24 22.24 0 0 1-12.413 7.216.24.24 0 0 1-.119-.007c-.038-.012-.073-.034-.101-.063s-.048-.065-.059-.104-.012-.08-.003-.12c1.486-6.254 1.063-12.812-1.213-18.821-1.166-3.77-3.111-7.249-5.709-10.212a27.93 27.93 0 0 0-9.366-6.98c.178-.468.331-.944.46-1.428a.84.84 0 0 1 .689-.615c1.627-.239 3.115-1.053 4.196-2.296s1.686-2.832 1.704-4.483a6.94 6.94 0 0 0-1.606-4.519 6.9 6.9 0 0 0-4.145-2.388.84.84 0 0 1-.654-.551 15.11 15.11 0 0 0-5.309-7.173 15.03 15.03 0 0 0-8.417-2.911zm-.943 1.106a13.92 13.92 0 0 1 8.328 2.44c2.447 1.681 4.297 4.101 5.283 6.908a1.95 1.95 0 0 0 .582.844 1.94 1.94 0 0 0 .929.431 5.79 5.79 0 0 1 3.48 2.006c.885 1.063 1.363 2.409 1.348 3.794a5.83 5.83 0 0 1-1.429 3.764 5.79 5.79 0 0 1-3.522 1.93 1.94 1.94 0 0 0-1.011.472 1.95 1.95 0 0 0-.586.952c-.42 1.572-1.12 3.055-2.067 4.376a9.88 9.88 0 0 0-2.486-7.057c-.02-.026-.034-.057-.041-.089s-.009-.065-.003-.098.018-.064.036-.091a.24.24 0 0 1 .069-.07c1.367-1.175 2.243-2.822 2.456-4.616a7.22 7.22 0 0 0-1.306-5.066 7.17 7.17 0 0 0-4.379-2.839 7.14 7.14 0 0 0-5.137.888 1.43 1.43 0 0 1-1.479 0h-.016c-1.541-.929-3.373-1.243-5.133-.88a7.17 7.17 0 0 0-4.373 2.839 7.22 7.22 0 0 0-1.306 5.061c.212 1.792 1.086 3.438 2.449 4.613.023.023.041.05.054.079s.019.062.019.094-.006.064-.019.094-.031.057-.054.08a9.87 9.87 0 0 0-2.359 4.947 13.52 13.52 0 0 1-.832-2.266c-.098-.368-.302-.698-.585-.952a1.94 1.94 0 0 0-1.009-.473 5.79 5.79 0 0 1-3.522-1.93 5.83 5.83 0 0 1-1.429-3.764c-.015-1.385.463-2.731 1.348-3.794a5.79 5.79 0 0 1 3.48-2.006 1.94 1.94 0 0 0 .927-.431 1.95 1.95 0 0 0 .581-.844 14.01 14.01 0 0 1 4.917-6.649 13.92 13.92 0 0 1 7.798-2.7zm-4.867 8.956a6.05 6.05 0 0 1 3.34.87 2.53 2.53 0 0 0 1.31.365c.462 0 .914-.126 1.31-.365 1.303-.785 2.853-1.05 4.342-.743s2.808 1.165 3.698 2.403a6.1 6.1 0 0 1-.97 8.183 1.37 1.37 0 0 0-.326.422c-.08.161-.126.337-.138.516a1.36 1.36 0 0 0 .072.529c.059.17.151.326.271.46a8.75 8.75 0 0 1 1.958 3.713 8.78 8.78 0 0 1 .007 4.201c-1.398 1.422-3.095 2.513-4.965 3.195a13.36 13.36 0 0 1-5.85.747c-1.981-.19-3.895-.82-5.604-1.845a13.42 13.42 0 0 1-4.274-4.08c-.026-2.186.765-4.302 2.216-5.932.119-.134.211-.291.269-.461a1.36 1.36 0 0 0 .07-.53c-.012-.18-.06-.355-.14-.516s-.192-.304-.328-.421a6.09 6.09 0 0 1-1.916-3.042 6.11 6.11 0 0 1 .13-3.597 6.09 6.09 0 0 1 2.13-2.895 6.05 6.05 0 0 1 3.387-1.182l.003.003zm44.245 12.026a12.63 12.63 0 0 1 3.75.536 20.5 20.5 0 0 1 9.718 6.884c3.186 4.21 4.609 9.503 3.965 14.751a30.62 30.62 0 0 1-8.448 16.268 29.63 29.63 0 0 1-9.998 7.357 29.51 29.51 0 0 1-12.121 2.604H61.723a1.43 1.43 0 0 1-1.017-.421 1.44 1.44 0 0 1-.312-.468c-.072-.175-.109-.363-.109-.552v-1.186a3.46 3.46 0 0 1 .261-1.316c.172-.418.425-.796.743-1.115s.696-.572 1.111-.745a3.41 3.41 0 0 1 1.311-.261h.502a1.94 1.94 0 0 0 1.376-.57 1.95 1.95 0 0 0 .422-.633 1.96 1.96 0 0 0 .149-.747v-1.447a8.16 8.16 0 0 1 2.441-5.635c1.515-1.486 3.55-2.318 5.668-2.318s4.153.832 5.668 2.318a8.16 8.16 0 0 1 2.441 5.635v2.476c.004.144.064.281.167.382a.55.55 0 0 0 .77 0 .56.56 0 0 0 .168-.382v-2.476a9.28 9.28 0 0 0-1.228-4.617c-.805-1.405-1.964-2.572-3.359-3.386a6.51 6.51 0 0 0 2.356-1.09 6.53 6.53 0 0 0 1.745-1.927 6.56 6.56 0 0 0 .858-2.457c.119-.869.063-1.752-.165-2.599a32.66 32.66 0 0 0-2.438-6.34c-.067-.131-.183-.23-.323-.275a.55.55 0 0 0-.422.035c-.13.067-.229.184-.274.324a.56.56 0 0 0 .034.424c.995 1.953 1.783 4.005 2.353 6.123.235.874.249 1.794.04 2.675a5.44 5.44 0 0 1-1.237 2.37 5.41 5.41 0 0 1-2.214 1.489 5.39 5.39 0 0 1-2.654.248l-16.5-2.62c-.775-.126-1.468-.555-1.929-1.194a2.99 2.99 0 0 1-.527-2.212 2.98 2.98 0 0 1 1.182-1.941 2.96 2.96 0 0 1 2.202-.538l12.703 2.018a.55.55 0 0 0 .408-.102.56.56 0 0 0 .219-.361c.023-.145-.013-.292-.098-.411a.55.55 0 0 0-.358-.223l-6.543-1.039a34.64 34.64 0 0 1 1.254-7.675c2.679-.077 5.284-.897 7.527-2.369s4.037-3.539 5.182-5.972a26.83 26.83 0 0 1 8.991 6.715 26.94 26.94 0 0 1 5.473 9.817 31.05 31.05 0 0 1 1.181 18.203c-.053.221-.049.451.01.67s.173.42.33.583.352.285.568.353.445.08.667.036c5.044-1.009 9.615-3.661 13.005-7.544 3.53-3.494 5.907-7.992 6.81-12.886.396-3.561-.581-7.139-2.731-9.998-1.71-2.19-4.019-3.832-6.645-4.724a6.4 6.4 0 0 0-3.951.138c-1.27.462-2.362 1.314-3.122 2.435a3.13 3.13 0 0 1-.87.858 3.12 3.12 0 0 1-1.131.459 3.11 3.11 0 0 1-1.22-.011 3.12 3.12 0 0 1-1.123-.478 3.13 3.13 0 0 1-.855-.873c-.225-.345-.38-.73-.457-1.135a3.15 3.15 0 0 1 .011-1.225c.084-.404.245-.787.477-1.127a12.69 12.69 0 0 1 4.503-4.061 12.63 12.63 0 0 1 5.866-1.501zM67.914 52.782l3.299.523c-1.025.362-1.979.904-2.816 1.6a34.59 34.59 0 0 1-.479-2.123h-.003zm4.154-38.151a2.34 2.34 0 0 0-1.639.713 2.36 2.36 0 0 0-.663 1.665 2.36 2.36 0 0 0 .687 1.664 2.34 2.34 0 0 0 3.316 0 2.36 2.36 0 0 0 .687-1.664 2.36 2.36 0 0 0-.175-.918 2.34 2.34 0 0 0-.518-.777 2.37 2.37 0 0 0-.778-.514 2.32 2.32 0 0 0-.916-.168zm.02 1.122a1.25 1.25 0 0 1 .484.088 1.24 1.24 0 0 1 .686.682c.063.154.095.319.093.486a1.25 1.25 0 0 1-.363.88 1.24 1.24 0 0 1-.402.27 1.23 1.23 0 0 1-.475.095 1.24 1.24 0 0 1-.877-.365 1.25 1.25 0 0 1-.363-.88 1.25 1.25 0 0 1 .35-.879c.227-.235.539-.371.866-.377zm-9.303-1.122a2.34 2.34 0 0 0-1.639.713 2.36 2.36 0 0 0-.663 1.665 2.36 2.36 0 0 0 .662 1.707 2.34 2.34 0 0 0 .768.527c.289.122.599.186.912.186a2.34 2.34 0 0 0 1.681-.713c.218-.226.39-.493.503-.786a2.36 2.36 0 0 0 .159-.921 2.36 2.36 0 0 0-.175-.918 2.35 2.35 0 0 0-.517-.777 2.36 2.36 0 0 0-.777-.514 2.33 2.33 0 0 0-.915-.17zm.019 1.122a1.23 1.23 0 0 1 .484.089 1.24 1.24 0 0 1 .411.271 1.25 1.25 0 0 1 .366.896 1.25 1.25 0 0 1-.085.485 1.24 1.24 0 0 1-.672.692 1.24 1.24 0 0 1-.481.098c-.165 0-.329-.033-.481-.098a1.24 1.24 0 0 1-.406-.278 1.25 1.25 0 0 1-.266-.414c-.06-.154-.089-.32-.085-.485-.003-.328.123-.644.35-.88a1.23 1.23 0 0 1 .866-.376zm.694 13.074a4.88 4.88 0 0 0 1.734 1.518 4.83 4.83 0 0 0 2.235.547c.778 0 1.545-.188 2.235-.547s1.286-.88 1.735-1.518c.082-.12.114-.268.088-.412s-.107-.271-.225-.355a.55.55 0 0 0-.409-.094c-.143.024-.271.103-.357.221a3.76 3.76 0 0 1-1.34 1.172 3.75 3.75 0 0 1-1.727.422 3.74 3.74 0 0 1-1.727-.422 3.76 3.76 0 0 1-1.34-1.172c-.086-.118-.214-.197-.357-.221a.55.55 0 0 0-.634.449.56.56 0 0 0 .088.412z"
          fill="#333b41" stroke="#333b41" stroke-width=".7"/>
    <defs/>
</svg>