<svg xmlns="http://www.w3.org/2000/svg" viewBox="0 0 71 37" width="71" height="37" fill="none"
     xmlns:v="https://vecta.io/nano">
    <path d="M54.589 28.034h0l-.004.003-8.237 4.867-4.329 2.009c-1.415.55-2.76.933-3.778.933-.664 0-1.253-.164-1.601-.626h0c-.351-.468-.341-1.089-.149-1.738.194-.655.59-1.397 1.1-2.17 1.022-1.549 2.541-3.278 3.972-4.776l3.648-3.58c-4.338.385-9.196.587-14.154.587-7.293 0-14.821-.454-20.53-1.33-2.852-.438-5.264-.983-6.968-1.636-.851-.326-1.541-.684-2.023-1.08S.75 18.642.75 18.116s.304-.986.785-1.381 1.172-.754 2.023-1.08c1.704-.653 4.116-1.198 6.968-1.636 5.709-.877 13.237-1.331 20.53-1.331 5.218 0 10.28.221 14.769.642a92.6 92.6 0 0 1-5.033-4.067h0c-1.558-1.365-3.224-2.953-4.379-4.405-.577-.725-1.036-1.429-1.288-2.064-.249-.629-.314-1.246-.006-1.743h0c.309-.497.891-.713 1.566-.768.681-.056 1.516.044 2.421.239 1.814.391 3.976 1.181 5.889 1.973 2.569 1.063 5.474 2.449 8.638 4.119l.002.001 2.413 1.304h0l.007.004 3.472 2.013 10.272 6.262.643.4-.605.454-9.672 7.15-1.457 1.047-4.12 2.785zm-8.72 3.95h0c2.44-1.273 5.182-2.894 8.149-4.817l2.277-1.505 3.263-2.301 9.049-6.681-9.61-5.851-2.22-1.313-3.631-1.985c-3.137-1.656-6.012-3.027-8.547-4.075h0c-3.682-1.525-5.824-2.043-7.06-2.142s-1.499.224-1.538.286-.212.435.428 1.502 2.051 2.755 5.049 5.38h0c1.787 1.566 3.965 3.295 6.472 5.138l1.56 1.146-1.925-.213c-4.89-.54-10.605-.827-16.527-.827-8.819 0-16.184.599-21.339 1.476-2.579.439-4.595.945-5.96 1.476-.684.266-1.191.533-1.522.792-.338.264-.448.482-.448.646s.11.382.448.646c.331.259.838.526 1.522.792 1.365.531 3.381 1.037 5.96 1.476 5.155.877 12.52 1.476 21.339 1.476 5.523 0 10.916-.252 15.592-.729l1.57-.16-1.169 1.062c-1.802 1.633-3.395 3.173-4.736 4.576-2.753 2.88-4.01 4.689-4.551 5.806-.544 1.124-.333 1.48-.292 1.535h0c.041.055.324.356 1.554.147 1.223-.208 3.311-.914 6.844-2.759z"
          fill="#333b41" stroke="#333b41" stroke-width=".5"/>
    <defs/>
</svg>