<svg xmlns="http://www.w3.org/2000/svg" viewBox="0 0 284 246" width="284" height="246" fill="#000"
     xmlns:v="https://vecta.io/nano">
    <path d="M248.818 196.012c10.849-20.981 19.674-46.71 19.674-74.13 0-13.773-4.303-29.43-11.509-41.881-6.302-10.888-17.987-24.954-37.884-30.14-25.181-6.562-50.694-.443-71.194 4.475-7.408 1.777-14.406 3.456-20.4 4.286-13.442 1.86-27.644 1.588-39.852 1.116h-.008l-5.578-.228c-7.713-.326-25.477-.638-25.477-.638-.969-4.121-3.179-7.497-5.938-9.055-1.169-.649-2.445-.978-3.734-.963s-2.559.374-3.717 1.051c-3.794 2.048-5.614 6.598-4.754 11.735-6.079 3.121-12.019 9.332-15.621 14.217-3.093 4.194-5.716 10.815-8.253 17.218-2.583 6.521-5.254 13.264-7.927 15.987a11.24 11.24 0 0 0-1.721 2.262c-.008 0-.017-.005-.026-.007a3.45 3.45 0 0 0-1.692.019c-.557.147-1.082.431-1.541.833s-.843.916-1.126 1.505a5.56 5.56 0 0 0-.519 1.919 5.76 5.76 0 0 0 .177 2.005c.176.647.463 1.242.843 1.749s.845.912 1.364 1.192a3.54 3.54 0 0 0 1.653.433 27.41 27.41 0 0 0 1.943 5.129c5.379 11.033 13.888 17.892 21.395 23.942 4.139 3.336 8.047 6.487 11.075 10.006 2.272 2.732 4.248 5.792 5.882 9.109.018.042.042.078.061.119 3.074 6.128 5.512 13.605 5.967 20.746l2.366 41.076c-1.479.561-2.867 1.42-4.102 2.539-.919.828-1.594 1.983-1.926 3.298a7.66 7.66 0 0 0 .078 4.018c.363 1.322 1.07 2.472 2.019 3.284s2.088 1.244 3.256 1.232h25.143a4.8 4.8 0 0 0 2.345-.616c.734-.407 1.385-1.001 1.906-1.74 5.56-7.879 19.43-28.184 28.209-46.606 33.98-.04 57.186-1.509 70.723-4.489l5.653 38.738c-.841.469-1.635 1.045-2.37 1.719-1.006.925-1.744 2.201-2.11 3.649a8.57 8.57 0 0 0 .066 4.431c.409 1.433 1.185 2.677 2.217 3.558s2.271 1.355 3.541 1.355h23.567c1.394-.001 2.745-.572 3.829-1.616 7.772-7.512 21.993-24.672 33.852-47.497.065-.11.124-.224.176-.343zm-166.08-72.193c-7.602 18.982-20.983 34.337-35.236 40.6-1.637-3.051-3.545-5.882-5.693-8.443-3.334-3.875-7.415-7.164-11.734-10.646-7.428-5.988-15.112-12.18-19.942-22.088-2.941-6.031-1.842-8.367-.381-9.855 3.452-3.516 6.216-10.495 9.144-17.884 2.395-6.047 4.872-12.3 7.521-15.89 3.206-4.348 8.907-10.36 14.424-12.997a4.04 4.04 0 0 0 1.427-1.168c3.016 5.252 10.199 4.478 12.002-.305a5.77 5.77 0 0 0 .278-1.071c7.592 1.176 19.69.8 27.352 1.125l3.994.165c5.588 18.697 4.486 39.38-3.155 58.458zm146.517 52.117c-4.451-.986-26.544-4.967-45.074 7.973-.881-7.136-1.482-13.071-1.482-15.972 0-.754-.252-1.478-.699-2.011s-1.055-.834-1.689-.834-1.24.3-1.688.834-.699 1.257-.699 2.011c0 3.369.721 10.311 1.744 18.456-11.561 2.574-30.626 4.006-57.953 4.346 5.44-3.936 9.778-9.586 12.946-16.935 4.412-10.228 6.362-23.553 5.639-38.536-.814-16.881-11.7-39.618-20.448-57.886l-5.582-11.868c4.601-.224 9.227-.61 13.784-1.241 6.191-.856 13.283-2.558 20.791-4.362 20.062-4.813 45.03-10.803 69.231-4.495 33.25 8.669 45.64 45.37 45.64 66.466 0 24.281-7.241 47.227-16.584 66.506-2.743-4.888-8.459-10.365-17.877-12.452zM32.002 89.239c-9.61-4.425-15.199 8.002-9.083 15.3 3.344 3.988 6.524 13.23 13.79 12.464 11.545-1.215 10.482-20.778-4.707-27.764zm-4.353 12.024c-.57 0-1.127-.204-1.601-.587s-.843-.925-1.061-1.561-.275-1.335-.164-2.01.386-1.295.789-1.782.916-.818 1.475-.952a2.43 2.43 0 0 1 1.665.198c.527.263.976.709 1.293 1.282a4.01 4.01 0 0 1 .486 1.933c0 .923-.304 1.808-.844 2.46s-1.273 1.019-2.037 1.02zm107.682 100.688a.66.66 0 0 0-.195-.352c-.096-.088-.215-.135-.337-.134l-22.249.231c-.09-.001-.178.026-.257.078s-.145.126-.192.216c-3.759 7.054-10.354 18.029-14.709 25.174a.72.72 0 0 0-.1.406.7.7 0 0 0 .138.39l6.085 8.052-.065.115c-.021.045-.048.089-.07.134a6.87 6.87 0 0 0-.75 3.045c-.017 1.076.21 2.137.656 3.075s1.096 1.718 1.883 2.261 1.681.829 2.593.828h25.879a4.47 4.47 0 0 0 1.992-.477c.631-.314 1.202-.774 1.68-1.352s.853-1.265 1.103-2.017.371-1.556.354-2.364c-.087-4.163-.314-10.698-.878-17.79a164.76 164.76 0 0 0-2.561-19.519zm127.592-23.407c-.035-.122-.099-.228-.185-.305s-.189-.119-.295-.123a.46.46 0 0 0-.301.102.63.63 0 0 0-.2.291l-2.368 6.099c-7.304 16.612-16.161 32.146-26.397 46.293a.72.72 0 0 0-.132.433c.002.159.054.311.145.426l1.769 2.266c-.52.747-.956 1.574-1.297 2.46-.367.98-.523 2.055-.455 3.128s.358 2.106.844 3.006c.432.856 1.035 1.565 1.753 2.064s1.527.768 2.354.786h26.866a4.24 4.24 0 0 0 1.932-.475 5.04 5.04 0 0 0 1.628-1.347c.464-.576.827-1.258 1.07-2.008a7.22 7.22 0 0 0 .345-2.355c-.266-12.955-1.5-41.667-7.076-60.741z"/>
</svg>