<svg xmlns="http://www.w3.org/2000/svg" width="108" height="60" fill="none" xmlns:v="https://vecta.io/nano">
    <path d="M46.973 25.033a1.18 1.18 0 0 1-.159-.062c-15.27-5.735-22.379 4.967-22.4 4.998a1.24 1.24 0 0 1-.642.479l-18.13 5.856a4.57 4.57 0 0 0-2.413 1.807c-.552.827-.828 1.846-.742 2.926l1.175 14.759a1.87 1.87 0 0 0 .288.878c.164.251.397.463.688.62s.599.237.897.235.595-.085.892-.249v.002L24.72 47.13a1.22 1.22 0 0 1 .655-.162c.045.002 15.84.612 21.734 1.719 5.231.983 7.449-.942 7.456-.947l.001.002a1.24 1.24 0 0 1 .202-.137l17.68-9.629H47.878v-.003a1.22 1.22 0 0 1-.328-.045c-.93-.26-1.548-.896-1.861-1.649a3.08 3.08 0 0 1-.226-1.383c.032-.477.179-.948.439-1.356.382-.599.983-1.045 1.796-1.168l15.882-4.964c.867-.271 1.408-1.009 1.573-1.819a2.61 2.61 0 0 0-.011-1.101c-.076-.329-.225-.639-.45-.895-.519-.592-1.493-.923-3.003-.654l-13.451 2.399c-.219.036-.45.017-.671-.072l-.593-.232zm-.872-2.922V5.864c0-1.614.658-3.08 1.718-4.142S50.341 0 51.951 0h50.198c1.611 0 3.073.659 4.133 1.722S108 4.25 108 5.864v26.248a5.85 5.85 0 0 1-1.718 4.142c-1.06 1.062-2.522 1.722-4.133 1.722H77.608L56.047 49.718c-.58.438-3.66 2.476-9.392 1.399-5.239-.984-18.727-1.572-21.028-1.667L7.614 59.448c-.651.364-1.355.547-2.069.552a4.3 4.3 0 0 1-2.075-.525c-.664-.358-1.2-.85-1.587-1.443s-.624-1.287-.684-2.04L.023 41.233c-.131-1.644.3-3.21 1.158-4.495s2.137-2.278 3.707-2.785l17.746-5.732c1.457-1.907 9.116-10.696 23.467-6.109zm31.193 13.386h24.856c.927 0 1.772-.381 2.385-.995a3.38 3.38 0 0 0 .993-2.39V13.107H48.574v9.654l12.69-2.264c2.489-.444 4.235.264 5.283 1.458a4.53 4.53 0 0 1 1.001 1.979c.072.309.112.627.122.947h3.683a.62.62 0 0 1 .618.62.62.62 0 0 1-.618.62h-3.794c-.192.905-.627 1.766-1.285 2.446a.62.62 0 0 1-.48 1.01h-.968c-.163.072-.334.137-.51.192l-15.975 4.994c-.092.029-.184.046-.276.053-.042.009-.07.027-.084.05a.42.42 0 0 0-.053.194.6.6 0 0 0 .042.269c.028.066.072.126.133.167h29.191zm15.705-12.04c.915 0 1.777.23 2.529.637a5.36 5.36 0 0 1 .965-.401c.5-.153 1.025-.236 1.561-.236a5.32 5.32 0 0 1 3.777 1.568c.966.969 1.565 2.307 1.565 3.785a5.35 5.35 0 0 1-1.565 3.786 5.32 5.32 0 0 1-3.777 1.568c-.536 0-1.061-.083-1.561-.236a5.39 5.39 0 0 1-.965-.401c-.753.407-1.614.637-2.529.637a5.32 5.32 0 0 1-3.777-1.568c-.967-.969-1.565-2.307-1.565-3.786s.598-2.817 1.565-3.786 2.302-1.568 3.777-1.568zm3.998 1.803c.836.945 1.344 2.189 1.344 3.551s-.508 2.606-1.344 3.551a3.71 3.71 0 0 0 1.058.15c1.02 0 1.943-.414 2.611-1.084s1.082-1.595 1.082-2.618-.414-1.948-1.082-2.617-1.591-1.084-2.611-1.084a3.71 3.71 0 0 0-1.058.15zm-1.386.934a3.68 3.68 0 0 0-2.612-1.084c-1.02 0-1.943.414-2.611 1.084s-1.082 1.595-1.082 2.617.413 1.948 1.082 2.617 1.592 1.084 2.611 1.084a3.68 3.68 0 0 0 2.612-1.084c.668-.67 1.081-1.595 1.081-2.617s-.413-1.948-1.081-2.617zm-27.006 3.384a.62.62 0 0 1-.618-.62.62.62 0 0 1 .618-.62h2.11a.62.62 0 0 1 .618.62.62.62 0 0 1-.618.62h-2.11zm23.99-10.532a.62.62 0 0 1-.618-.62.62.62 0 0 1 .618-.62h7.959a.62.62 0 0 1 .618.62.62.62 0 0 1-.618.62h-7.959zm-18.186 0a.62.62 0 0 1-.618-.62.62.62 0 0 1 .618-.62h11.493a.62.62 0 0 1 .618.62.62.62 0 0 1-.618.62H74.408zm-23.429 0a.62.62 0 0 1-.618-.62.62.62 0 0 1 .618-.62h16.778a.62.62 0 0 1 .618.62.62.62 0 0 1-.618.62H50.979zm54.548-7.592V6.69H48.574v4.764h56.953zm-.103-6.417c-.152-.6-.465-1.137-.89-1.563-.613-.614-1.458-.995-2.385-.995H51.951c-.927 0-1.772.381-2.384.995a3.4 3.4 0 0 0-.89 1.563h56.748z"
          fill="#333b41"/>
    <defs/>
</svg>