<svg xmlns="http://www.w3.org/2000/svg" viewBox="0 0 16 14" width="16" height="14" fill="none"
     xmlns:v="https://vecta.io/nano">
    <path fill-rule="evenodd"
          d="M16 1.657a6.2 6.2 0 0 1-1.885.557c.678-.438 1.198-1.13 1.443-1.956-.634.405-1.337.699-2.085.858C12.875.429 12.022 0 11.077 0 9.265 0 7.795 1.582 7.795 3.534a3.81 3.81 0 0 0 .085.806C5.152 4.192 2.733 2.785 1.114.647.831 1.169.669 1.776.669 2.424c0 1.226.58 2.308 1.46 2.942-.538-.019-1.044-.177-1.487-.442v.044c0 1.712 1.132 3.141 2.633 3.466a3.07 3.07 0 0 1-.865.124 3.05 3.05 0 0 1-.618-.064c.418 1.404 1.63 2.426 3.066 2.455-1.123.948-2.539 1.513-4.077 1.513-.265 0-.526-.017-.783-.049C1.453 13.415 3.178 14 5.032 14c6.038 0 9.34-5.386 9.34-10.056 0-.153-.003-.306-.009-.457.641-.498 1.198-1.121 1.638-1.829z"
          fill="#fff"/>
</svg>