<svg xmlns="http://www.w3.org/2000/svg" width="37" height="37" fill="none"  xmlns:v="https://vecta.io/nano"><path d="M37 18.5C37 8.304 28.696 0 18.5 0S0 8.304 0 18.5c0 6.126 3.001 11.593 7.647 14.964.082.082.164.123.247.165C10.894 35.767 14.553 37 18.5 37s7.606-1.233 10.607-3.371c.082-.041.164-.123.247-.165C33.999 30.093 37 24.626 37 18.5zM9.044 32.437v-.781A9.46 9.46 0 0 1 18.5 22.2a9.46 9.46 0 0 1 9.456 9.456v.781c-2.713 1.85-5.961 2.919-9.456 2.919s-6.742-1.069-9.456-2.919zm4.522-16.815a4.95 4.95 0 0 1 4.933-4.933 4.95 4.95 0 0 1 4.933 4.933 4.95 4.95 0 0 1-4.933 4.933 4.95 4.95 0 0 1-4.933-4.933zM29.6 31.162c-.206-4.687-3.289-8.592-7.523-10.031 1.809-1.151 3.001-3.207 3.001-5.509A6.6 6.6 0 0 0 18.5 9.044a6.6 6.6 0 0 0-6.578 6.578c0 2.302 1.192 4.358 3.001 5.509-4.234 1.439-7.318 5.386-7.523 10.031A16.73 16.73 0 0 1 1.644 18.5c0-9.291 7.564-16.856 16.856-16.856S35.356 9.209 35.356 18.5A16.73 16.73 0 0 1 29.6 31.162z" fill="#767474"/><defs /></svg>