<svg xmlns="http://www.w3.org/2000/svg" viewBox="0 0 18 13" width="18" height="13" fill="none"
     xmlns:v="https://vecta.io/nano">
    <path fill-rule="evenodd"
          d="M12.006 5.773L7.494 3.517s-1.253-.57-1.253.501v5.012s.023.765 1.253.251c.856-.358 4.512-2.256 4.512-2.256s.933-.598 0-1.253zm5.515 5.012c-.559 1.59-1.754 1.795-2.758 2.005-1.479.31-10.991.271-12.534-.251-.962-.325-1.554-.465-2.005-2.757-.289-1.466-.308-5.78 0-7.268C.522 1.074 1.271.398 2.731.259c3.921-.371 10.474-.319 12.534 0 1.91.296 2.309 1.435 2.507 2.506.321 1.735.358 6.287-.251 8.02z"
          fill="#fff"/>
</svg>